<?xml version="1.0" encoding="UTF-8"?>
<svg id="Layer_1" data-name="Layer 1" xmlns="http://www.w3.org/2000/svg" viewBox="0 0 473.13 342.6">
  <defs>
    <style>
      .cls-1 {
        fill: #cd2027;
      }

      .cls-1, .cls-2, .cls-3 {
        stroke-width: 0px;
      }

      .cls-2 {
        fill: #010101;
      }

      .cls-3 {
        fill: #fff;
      }
    </style>
  </defs>
  <g>
    <path class="cls-3" d="M444.94,174.95c-9.98-5.85-21.94-6.37-33.62-2.47-.16,2.94-.4,5.89-.71,8.85-.14,1.31-.3,2.62-.46,3.92.42-4.6.63-9.25.63-13.95,0-89.84-77.98-162.66-174.18-162.66S67.28,77.03,62.65,163.01c-.14,2.75-.22,5.51-.22,8.29,0,5.52.29,10.98.87,16.36-.3-2.1-.56-4.2-.78-6.33-.31-2.96-.54-5.91-.71-8.85-11.68-3.9-23.64-3.38-33.62,2.47-22,12.9-26.04,46.86-9.03,75.85,17,28.98,48.62,42.02,70.62,29.12,3.75-2.2,6.98-5.02,9.68-8.32-.2-.25-.4-.51-.6-.76,31.86,38.4,81.72,63.11,137.76,63.11s105.21-24.38,137.1-62.32c2.69,3.29,5.91,6.09,9.65,8.29,22,12.9,53.61-.14,70.62-29.12,17-28.99,12.96-62.95-9.03-75.85Z"/>
    <path class="cls-2" d="M236.61,342.6c-28.68,0-56.13-6.05-81.61-17.97-21.17-9.91-40.35-23.82-56-40.55-1.54,1.21-3.16,2.31-4.86,3.3-13.03,7.64-28.95,8.24-44.84,1.68-15.07-6.21-28.42-18.25-37.59-33.88C2.54,239.54-1.45,222.01.47,205.82c2.03-17.07,10.33-30.68,23.35-38.32,8.92-5.23,19.39-7.16,30.25-5.68,2.55-43.74,22.63-84.44,56.59-114.69C144.78,16.74,189.51,0,236.61,0c24.6,0,48.48,4.5,70.97,13.39,21.75,8.59,41.29,20.9,58.09,36.58,16.83,15.72,30.06,34.04,39.3,54.45,8.28,18.28,13.04,37.55,14.18,57.39,10.82-1.46,21.26.47,30.16,5.69,13.02,7.64,21.32,21.25,23.35,38.32,1.93,16.19-2.06,33.71-11.23,49.35-9.17,15.64-22.52,27.67-37.59,33.88-15.89,6.55-31.82,5.96-44.84-1.68-1.68-.98-3.28-2.07-4.81-3.26-15.77,16.84-35.13,30.84-56.47,40.75-25.34,11.77-52.62,17.74-81.1,17.74ZM105.5,265.33c31.63,38.13,79.42,59.99,131.11,59.99s98.85-21.59,130.49-59.24l6.7-7.97,6.6,8.06c2.09,2.55,4.56,4.67,7.34,6.31,8.25,4.84,18.73,5.06,29.51.61,11.61-4.79,22-14.25,29.28-26.65,7.28-12.4,10.47-26.1,8.98-38.57-1.38-11.58-6.68-20.62-14.94-25.47h0c-6.01-3.53-13.35-4.6-21.08-3.15-.09,1-.19,2-.29,2.98-.13,1.23-.28,2.53-.48,4.11l-17.17-1.87c.4-4.37.6-8.8.6-13.17,0-84.93-74.26-154.02-165.54-154.02S75.69,81.49,71.28,163.47c-.14,2.63-.21,5.27-.21,7.83,0,5.15.28,10.35.82,15.44l-17.14,2.13c-.32-2.26-.6-4.49-.82-6.64-.1-.98-.2-1.98-.29-2.98-7.73-1.45-15.07-.38-21.08,3.15-8.25,4.84-13.56,13.88-14.94,25.47-1.48,12.47,1.7,26.16,8.98,38.57,7.28,12.4,17.67,21.87,29.28,26.65,10.78,4.45,21.26,4.23,29.52-.61,2.79-1.64,5.27-3.77,7.36-6.33l5.84,4.77,6.9-5.58Z"/>
  </g>
  <g>
    <path class="cls-2" d="M410.79,171.3c0,89.84-77.98,162.66-174.18,162.66-61.72,0-115.95-29.98-146.88-75.21-9.38-13.7-16.61-28.79-21.27-44.88-3.92-13.57-6.02-27.84-6.02-42.57,0-2.78.08-5.54.22-8.29C67.28,77.03,143.39,8.64,236.61,8.64s174.18,72.83,174.18,162.66Z"/>
    <path class="cls-2" d="M236.61,337.8c-30.4,0-60.4-7.29-86.77-21.08-25.59-13.38-47.47-32.68-63.28-55.8-9.74-14.23-17.07-29.7-21.79-45.98-4.1-14.16-6.17-28.84-6.17-43.64,0-2.77.08-5.63.23-8.49,2.3-42.72,21.84-82.53,55.04-112.09C147.09,21.1,190.69,4.8,236.61,4.8s92.17,17.29,125.78,48.68c16.37,15.29,29.22,33.09,38.2,52.93,9.31,20.55,14.03,42.39,14.03,64.9s-4.72,44.34-14.03,64.9c-8.98,19.83-21.84,37.64-38.2,52.93-33.61,31.39-78.28,48.68-125.78,48.68ZM236.61,12.48c-90.85,0-165.58,66.21-170.12,150.74-.14,2.72-.22,5.45-.22,8.08,0,14.07,1.98,28.04,5.87,41.5,4.49,15.5,11.47,30.23,20.75,43.78,31.5,46.05,85.22,73.54,143.72,73.54,93.92,0,170.34-71.25,170.34-158.82S330.54,12.48,236.61,12.48Z"/>
  </g>
  <g>
    <g>
      <path class="cls-3" d="M99.45,271.61c-2.69,3.3-5.93,6.11-9.68,8.32-22,12.9-53.61-.14-70.62-29.12-17.01-28.99-12.96-62.95,9.04-75.86,9.98-5.85,21.94-6.37,33.62-2.47.17,2.94.4,5.89.71,8.85,1.65,15.69,5.33,30.67,10.75,44.71,6.44,16.64,15.32,31.96,26.18,45.57Z"/>
      <path class="cls-2" d="M70.95,288.77c-6.42,0-13.11-1.38-19.82-4.15-14.11-5.82-26.64-17.14-35.28-31.87-8.65-14.74-12.41-31.2-10.61-46.36,1.85-15.55,9.31-27.89,21.01-34.75,10.56-6.19,23.62-7.19,36.77-2.8l2.47.82.15,2.6c.17,3.04.4,5.88.7,8.67,1.58,15.04,5.12,29.75,10.52,43.72,6.22,16.07,14.83,31.07,25.6,44.56l1.93,2.42-1.96,2.4c-3.02,3.7-6.62,6.8-10.71,9.2-6.28,3.68-13.34,5.53-20.77,5.53ZM47.06,173.82c-6.12,0-11.9,1.49-16.92,4.44-20.13,11.81-23.57,43.48-7.67,70.6,15.91,27.11,45.23,39.56,65.36,27.75,2.42-1.43,4.64-3.16,6.62-5.17-10.32-13.43-18.64-28.23-24.76-44.02-5.64-14.6-9.34-29.97-10.99-45.69-.22-2.08-.4-4.18-.56-6.36-3.76-1.04-7.49-1.55-11.09-1.55Z"/>
    </g>
    <path class="cls-2" d="M22.12,200.71c2.77,23.41,31.91,30.11,51.37,28.18,3.65-.36,3.69-6.12,0-5.76-10.44,1.04-21.49.02-30.97-4.75-6.99-3.51-13.67-9.47-14.64-17.67-.43-3.64-6.19-3.68-5.76,0h0Z"/>
    <path class="cls-2" d="M51.52,228.02c.62,6.39.42,12.95-1.64,19.08-1.07,3.19-3.34,8.19-7.22,8.7-1.55.21-2.86,1.18-2.88,2.88-.01,1.4,1.34,3.08,2.88,2.88,14.3-1.91,15.68-22.62,14.61-33.54-.36-3.65-6.12-3.69-5.76,0h0Z"/>
    <path class="cls-2" d="M61.74,270.49c-1.07-11.91,8.56-21.34,20-22.68,3.64-.43,3.68-6.19,0-5.76-14.31,1.68-27.13,13.18-25.76,28.44.33,3.66,6.09,3.7,5.76,0h0Z"/>
    <path class="cls-2" d="M51.65,233.79c1.13,9.18,7.63,18.98,18,18.18,3.67-.28,3.7-6.05,0-5.76-6.99.54-11.47-6.13-12.24-12.42-.45-3.63-6.21-3.68-5.76,0h0Z"/>
  </g>
  <g>
    <g>
      <path class="cls-3" d="M373.68,271.61c2.69,3.3,5.92,6.11,9.68,8.32,22,12.9,53.61-.14,70.62-29.12,17-28.99,12.96-62.95-9.03-75.85-9.98-5.85-21.94-6.37-33.62-2.47-.16,2.94-.4,5.89-.71,8.85-1.65,15.69-5.33,30.66-10.75,44.7-6.44,16.64-15.32,31.96-26.18,45.57Z"/>
      <path class="cls-2" d="M402.18,288.76c-7.43,0-14.49-1.85-20.77-5.53-4.07-2.39-7.68-5.49-10.71-9.2l-1.96-2.4,1.93-2.42c10.77-13.49,19.38-28.49,25.6-44.56,5.4-13.98,8.94-28.69,10.52-43.72.3-2.81.53-5.73.69-8.66l.15-2.6,2.47-.82c13.15-4.39,26.22-3.39,36.78,2.8,11.7,6.86,19.16,19.2,21.01,34.75,1.8,15.15-1.96,31.62-10.61,46.36-8.65,14.74-21.18,26.06-35.28,31.87-6.71,2.77-13.4,4.14-19.82,4.14ZM378.69,271.44c1.98,2.02,4.2,3.75,6.62,5.17,20.13,11.81,49.46-.64,65.36-27.75,15.91-27.12,12.47-58.79-7.67-70.6-7.98-4.68-17.85-5.68-28.01-2.89-.15,2.15-.34,4.28-.55,6.36-1.65,15.71-5.35,31.08-10.99,45.69-6.11,15.8-14.43,30.59-24.76,44.03Z"/>
    </g>
    <path class="cls-2" d="M445.26,200.71c-.97,8.2-7.66,14.16-14.64,17.67-9.49,4.77-20.53,5.79-30.97,4.75-3.68-.37-3.66,5.39,0,5.76,19.46,1.93,48.6-4.77,51.37-28.18.43-3.67-5.33-3.64-5.76,0h0Z"/>
    <path class="cls-2" d="M415.85,228.02c-1.07,10.93.31,31.64,14.61,33.54,1.55.21,2.86-1.47,2.88-2.88.02-1.73-1.34-2.67-2.88-2.88-3.88-.52-6.15-5.51-7.22-8.7-2.06-6.13-2.26-12.69-1.64-19.08.36-3.69-5.4-3.66-5.76,0h0Z"/>
    <path class="cls-2" d="M417.15,270.49c1.37-15.27-11.45-26.76-25.76-28.44-3.67-.43-3.64,5.33,0,5.76,11.44,1.35,21.07,10.78,20,22.68-.33,3.69,5.43,3.67,5.76,0h0Z"/>
    <path class="cls-2" d="M415.73,233.79c-.77,6.29-5.25,12.96-12.24,12.42-3.7-.29-3.68,5.47,0,5.76,10.36.8,16.87-9,18-18.18.45-3.67-5.31-3.64-5.76,0h0Z"/>
  </g>
  <g>
    <g>
      <path class="cls-1" d="M344.04,59.17c86.02,79.47,31.03,143.84-17.94,154.78-13.07-11.1-38.79-17.95-89.44-17.95s-76.4,6.85-89.46,17.96c-48.99-10.89-104.08-75.28-18.02-154.8,18.23,25.42,55.64-6.22,107.43,62.79-.01.02-.03.04-.05.06h.1s-.03-.04-.05-.06c51.8-69.01,89.2-37.37,107.43-62.79Z"/>
      <path class="cls-1" d="M147.19,213.73c13.06-11.11,38.78-17.96,89.46-17.96s76.38,6.84,89.44,17.95c13.48,11.46,13.48,27.46,13.48,45.15,0,34.85-46.08,63.1-102.92,63.1s-102.92-28.25-102.92-63.1c0-17.69,0-33.67,13.46-45.14Z"/>
    </g>
    <g>
      <path class="cls-1" d="M236.66,324.84c-28.02,0-54.4-6.71-74.28-18.9-20.33-12.46-31.52-29.18-31.52-47.07s0-35,14.47-47.33c14.96-12.72,43.98-18.65,91.33-18.65s76.35,5.92,91.31,18.63h0c14.49,12.32,14.49,29.33,14.49,47.35s-11.19,34.61-31.52,47.07c-19.89,12.19-46.27,18.9-74.28,18.9ZM236.66,198.65c-45.91,0-73.74,5.49-87.6,17.27-12.45,10.6-12.45,25.59-12.45,42.94,0,33.2,44.88,60.22,100.04,60.22s100.04-27.01,100.04-60.22c0-17.36,0-32.36-12.46-42.96h0c-13.86-11.78-41.69-17.26-87.58-17.26Z"/>
      <path class="cls-1" d="M161.33,218.23c-4.75,0-9.71-.57-14.76-1.7-13.62-3.03-27.21-9.92-38.25-19.42-12.28-10.55-20.81-23.7-24.67-38.02-6.11-22.65-3.51-58.77,43.58-102.28l2.39-2.21,1.9,2.65c6.19,8.63,14.82,9.93,26.76,11.72,20.14,3.03,47.73,7.18,80.64,51.02l-4.61,3.46c-31.49-41.96-57.73-45.9-76.89-48.78-11.26-1.69-21.12-3.18-28.54-11.51-42.8,40.59-45.27,73.69-39.67,94.44,7.99,29.61,35.2,48.11,58.62,53.32,4.64,1.03,9.18,1.56,13.51,1.56v5.76Z"/>
      <polygon class="cls-1" points="242.39 124.91 230.78 124.91 234.31 120.23 236.61 117.15 242.39 124.91"/>
      <path class="cls-1" d="M311.9,218.23v-5.76c4.33,0,8.9-.53,13.58-1.57,23.4-5.23,50.58-23.75,58.55-53.34,5.59-20.75,3.11-53.84-39.68-94.41-7.42,8.34-17.28,9.82-28.54,11.51-19.16,2.88-45.4,6.83-76.89,48.78l-4.61-3.46c32.91-43.85,60.5-47.99,80.64-51.02,11.94-1.8,20.57-3.09,26.76-11.72l1.9-2.65,2.39,2.21c47.07,43.49,49.69,79.61,43.59,102.25-3.85,14.32-12.37,27.46-24.63,38.02-11.03,9.5-24.61,16.4-38.22,19.45-5.09,1.13-10.08,1.71-14.84,1.71Z"/>
    </g>
  </g>
  <g>
    <ellipse class="cls-3" cx="159.85" cy="146.26" rx="51.54" ry="61.34" transform="translate(-48.81 204.6) rotate(-58.08)"/>
    <path class="cls-1" d="M168.86,203.61c-12.85,0-25.95-3.82-37.67-11.1-30.09-18.68-41.7-54.62-25.9-80.12,7.71-12.44,20.67-20.55,36.5-22.83,15.64-2.26,32.24,1.45,46.74,10.45,30.09,18.68,41.7,54.62,25.9,80.12-7.71,12.44-20.67,20.55-36.5,22.83-2.99.43-6.02.65-9.06.65ZM150.85,94.67c-2.77,0-5.52.19-8.24.59-14.12,2.04-25.63,9.2-32.43,20.17-14.13,22.81-3.35,55.19,24.04,72.19,13.35,8.28,28.58,11.71,42.88,9.64,14.12-2.04,25.63-9.2,32.43-20.17,14.13-22.81,3.35-55.19-24.04-72.19-10.81-6.71-22.85-10.23-34.63-10.23Z"/>
  </g>
  <g>
    <ellipse class="cls-3" cx="312.92" cy="146.26" rx="61.34" ry="51.54" transform="translate(-30.01 187.58) rotate(-31.92)"/>
    <path class="cls-1" d="M303.91,203.61c-3.04,0-6.07-.21-9.06-.65-15.83-2.29-28.79-10.4-36.5-22.83-15.81-25.5-4.19-61.44,25.9-80.12,14.5-9,31.09-12.71,46.74-10.45,15.83,2.29,28.79,10.4,36.5,22.83,15.81,25.5,4.19,61.44-25.9,80.12-11.72,7.28-24.82,11.1-37.67,11.1ZM321.92,94.67c-11.78,0-23.82,3.52-34.63,10.23-27.39,17-38.18,49.39-24.04,72.19,6.8,10.97,18.31,18.13,32.43,20.17,14.3,2.07,29.53-1.36,42.88-9.64,27.39-17,38.18-49.39,24.04-72.19-6.8-10.96-18.31-18.13-32.43-20.17-2.72-.39-5.48-.59-8.24-.59Z"/>
  </g>
  <g>
    <path class="cls-3" d="M315.78,260.07c0,27.03-35.45,48.94-79.17,48.94s-79.17-21.91-79.17-48.94,3.84-48.94,79.17-48.94c80.61,0,79.17,21.91,79.17,48.94Z"/>
    <path class="cls-1" d="M236.61,312.85c-21.85,0-42.45-5.29-58-14.91-16.13-9.97-25.01-23.42-25.01-37.87s.97-27.53,12.68-37.53c12.19-10.41,34.54-15.25,70.33-15.25s60.17,4.71,71.82,14.82c11.22,9.74,11.21,22.77,11.19,36.57v1.39c0,14.45-8.88,27.9-25.01,37.87-15.55,9.61-36.15,14.91-58,14.91ZM236.61,214.96c-75.33,0-75.33,21.91-75.33,45.1,0,11.69,7.59,22.82,21.37,31.34,14.35,8.87,33.52,13.76,53.96,13.76s39.61-4.89,53.96-13.76c13.78-8.52,21.37-19.65,21.37-31.34v-1.4c.01-13.03.02-23.32-8.55-30.76-10.03-8.71-31.88-12.94-66.78-12.94Z"/>
  </g>
  <path class="cls-2" d="M197.74,156.52c-11.49-12.07-30-18.94-45.82-11.82-7.99,3.6-14.09,10.27-19,17.34-1.48,2.13-.39,5.33,1.72,6.56,2.39,1.4,5.08.41,6.56-1.72,3.69-5.31,8.2-10.16,14.01-13.15,4.13-2.13,8.12-2.77,12.89-2.39.32.03.63.06.95.1-.1-.01-.67-.1-.1,0s1.08.18,1.61.3c1.13.24,2.24.53,3.34.88,1,.32,1.98.67,2.95,1.07.52.21-.06-.02-.13-.06.26.12.53.23.79.36.52.24,1.03.49,1.54.75,1.66.85,3.27,1.79,4.83,2.82.7.46,1.38.94,2.05,1.43.31.23.62.46.93.69.43.32-.36-.27-.35-.27.19.16.39.31.58.46,1.33,1.09,2.66,2.21,3.85,3.45,4.27,4.48,11.04-2.31,6.79-6.79h0Z"/>
  <path class="cls-2" d="M285.58,163.18c.93-.98,1.96-1.88,3-2.75.25-.21.5-.41.74-.61.16-.14,1.02-.81.46-.37s.36-.27.54-.41c.37-.27.74-.54,1.12-.81,1.47-1.03,2.99-1.99,4.56-2.86.86-.48,1.73-.93,2.62-1.35.26-.12,1.33-.6,1.01-.47-.26.11.94-.37,1.28-.5,2.09-.77,4.23-1.35,6.43-1.72.78-.13-.25-.02.84-.1.56-.04,1.12-.09,1.68-.11,1.14-.04,2.29-.02,3.43.08.33.03.67.06,1,.1-.11-.02-.59-.09-.02.01.59.1,1.18.22,1.77.36,1.3.31,2.61.7,3.84,1.22,6.11,2.57,11.51,8.18,15.44,13.85,1.48,2.13,4.2,3.1,6.56,1.72,2.1-1.23,3.21-4.43,1.72-6.56-7.94-11.42-19.54-21.15-34.23-20.36-9.68.52-18.52,4.93-26.03,10.83-1.59,1.25-3.16,2.55-4.56,4.01-4.26,4.47,2.52,11.27,6.79,6.79h0Z"/>
  <g>
    <path class="cls-2" d="M272.36,242.79c0,18.55-16,33.59-35.75,33.59s-35.75-15.04-35.75-33.59,71.49-18.55,71.49,0Z"/>
    <path class="cls-2" d="M236.61,278.3c-20.77,0-37.67-15.93-37.67-35.51,0-10.94,18.92-15.83,37.67-15.83s37.67,4.9,37.67,15.83c0,19.58-16.9,35.51-37.67,35.51ZM236.61,230.8c-19.28,0-33.83,5.16-33.83,11.99,0,17.46,15.17,31.67,33.83,31.67s33.83-14.21,33.83-31.67c0-4.53-6.19-7.34-9.88-8.62-6.29-2.18-14.79-3.37-23.95-3.37Z"/>
  </g>
  <path class="cls-3" d="M259.16,236.42c0,7.5-10.1,13.57-22.55,13.57s-22.55-6.08-22.55-13.57,45.1-7.5,45.1,0Z"/>
  <g>
    <path class="cls-3" d="M254.38,192.64c0,10.73-35.99,10.73-35.99,0s8.06-19.43,17.99-19.43,17.99,8.7,17.99,19.43Z"/>
    <path class="cls-1" d="M236.38,202.61c-4.95,0-9.6-.76-13.08-2.15-5.65-2.24-6.83-5.49-6.83-7.82,0-11.77,8.93-21.34,19.91-21.34s19.91,9.58,19.91,21.34c0,6.88-10,9.97-19.91,9.97ZM236.38,175.14c-8.86,0-16.07,7.85-16.07,17.51,0,3.44,7.06,6.13,16.07,6.13s16.07-2.69,16.07-6.13c0-9.65-7.21-17.51-16.07-17.51Z"/>
  </g>
</svg>